<?xml version="1.0" encoding="UTF-8"?>
<svg id="Layer_2" data-name="Layer 2" xmlns="http://www.w3.org/2000/svg" viewBox="0 0 839.87 469.39">
  <g id="Layer_1-2" data-name="Layer 1">
    <g>
      <path d="M420.63,0C516.1,0,611.57,0,707.04,0c42.38,0,84.77,.07,127.15,.11,6.06,0,6.99,1.89,4.09,7.47-13.92,26.78-27.61,53.69-41.9,80.27-1.61,2.99-6.52,5.95-9.91,5.97-43.36,.19-86.72-.19-130.09-.34-4.83-.02-9.73,.02-14.45,.87-2.1,.37-4.59,2.41-5.62,4.37-13.3,25.38-26.39,50.86-39.48,76.35-3.05,5.94-2.04,7.38,5.12,7.37,32.47-.04,64.93-.11,97.4-.22,8.41-.03,9.63,1.83,5.89,9.2-13.06,25.76-26.26,51.46-38.99,77.39-2.54,5.18-5.64,7.04-11.16,7-32.23-.2-64.46,.2-96.68-.45-9.21-.19-13.78,3.03-17.67,11.07-11.84,24.44-24.48,48.5-36.9,72.65-5.15,10.01-2.63,14.5,8.61,14.51,42.89,.04,85.78-.02,128.67,.05,2.27,0,4.55,.85,6.82,1.31-.5,2.45-.51,5.14-1.58,7.31-12.12,24.53-24.38,49-36.68,73.45-1.83,3.64-3.63,7.42-6.19,10.51-1.43,1.72-4.4,3.05-6.68,3.06-55.49,.13-110.97,.19-166.46-.06-22-.1-44.15-19.44-49.85-40.49-5.87-21.67-.24-40.54,9.52-59.6,34.87-68.12,69.2-136.52,103.81-204.77,11.41-22.5,23.05-44.89,34.62-67.31,2.81-5.44,.88-7.95-6.18-7.95-33.44,.02-66.88,.03-100.31,.04-108.08,.03-216.16-.28-324.23,.29-36.01,.19-61.59-16.44-80.05-45.37C10.7,33.06,6.25,20.37,1.05,8.27-1.42,2.5,.43,.52,6.99,.53c137.88,0,275.76,0,413.65,0V0Z" style="fill: #da032d;"/>
      <path d="M290.46,115.26c61.99,0,123.99-.01,185.98,.01,9.42,0,9.98,1.03,5.85,9.27-8.83,17.59-17.7,35.17-26.37,52.84-2.81,5.73-6.52,8.58-13.4,8.56-89.84-.17-179.68,.16-269.52-.21-27.83-.12-47.05-16.53-62.64-37.57-5.22-7.05-8.95-15.28-12.84-23.22-3.94-8.05-2.74-9.61,6.24-9.61,62.24,0,124.47,0,186.71,0v-.08Z" style="fill: #da032d;"/>
      <path d="M308.14,212.49c39.47,0,78.95-.05,118.42,.09,2.96,.01,5.92,1.32,8.87,2.03-1.12,2.59-2.13,5.23-3.38,7.75-8.41,17.01-17.07,33.91-25.22,51.05-2.65,5.57-6.03,7.68-12.29,7.64-41.41-.26-82.85-1.08-124.23,.13-40.45,1.18-66.15-18.95-83.61-52.78-7.95-15.41-7.56-15.83,9.54-15.89,37.29-.12,74.59-.04,111.89-.04,0,0,0,.02,0,.03Z" style="fill: #da032d;"/>
      <path d="M327.03,307.06c18.17,0,36.33,.14,54.49-.08,6.28-.08,6.58,3.08,4.51,7.31-8.56,17.5-17.05,35.06-26.34,52.17-1.57,2.89-6.93,5.06-10.65,5.23-34.72,1.62-57.87-16.83-75.36-44.5-2.56-4.04-4.44-8.51-6.73-12.73-3-5.53-.76-7.42,4.85-7.39,15.02,.07,30.04,.03,45.06,.03,3.39,0,6.78,0,10.17,0v-.05Z" style="fill: #da032d;"/>
    </g>
  </g>
</svg>