<?xml version="1.0" encoding="UTF-8"?>
<svg id="Layer_2" data-name="Layer 2" xmlns="http://www.w3.org/2000/svg" viewBox="0 0 1494.12 469.9">
  <g id="Layer_1-2" data-name="Layer 1">
    <g>
      <path d="M1364.49,.16c40.7,0,81.39-.03,122.09,.08,2.52,0,5.03,1.13,7.54,1.73-.75,2.61-1.1,5.42-2.32,7.79-12.64,24.55-25.56,48.95-38.06,73.57-3.52,6.93-7.79,10.36-16.16,10.23-24.94-.36-49.91,.65-74.84,.14-8.22-.17-12.23,3.19-15.56,9.67-16.69,32.47-33.43,64.91-50.31,97.28-23.01,44.12-46.13,88.18-69.25,132.25-18,34.32-36.08,68.6-54.07,102.92-5.03,9.59-10.05,19.19-14.73,28.95-2.39,4.99-5.88,6.19-10.6,4.28-21.8-8.8-38.82-23.03-49.22-44.38-9.97-20.45-6.4-39.65,4.02-59.29,35.11-66.2,69.43-132.83,104.1-199.27,10.88-20.85,21.86-41.64,32.89-62.41,4.86-9.16,4.11-10.56-6.47-10.47-12.11,.11-24.22,.36-36.33,.52-9.12,.12-9.94-1.07-5.95-9.13,12.69-25.64,25.7-51.11,37.99-76.94,2.99-6.3,7.12-7.63,13.14-7.62,40.7,.08,81.4,.04,122.11,.04,0,.02,0,.03,0,.05Z" style="fill: #da032d;"/>
      <g>
        <path d="M820.54,275.58c-39.98,0-79.96,.02-119.94-.01-8.99,0-9.34-.48-5.49-7.97,10.52-20.44,20.44-41.25,32.03-61.07,9.19-15.7,24.17-24.21,42.68-24.27,73.18-.22,146.35-.16,219.53,.03,6.4,.02,9.98-1.9,12.96-7.76,25.94-50.95,52.58-101.55,78.15-152.68,6.86-13.71,16.09-21.05,31.34-21.07,23.25-.02,46.51-.18,69.76-.28,1.45,0,2.91,0,4.36,0,15-.16,15.29,.16,8.54,13.26-25.99,50.43-52.06,100.81-78.12,151.2-21.06,40.73-42.13,81.45-63.21,122.16-22.78,43.98-45.58,87.95-68.36,131.92-7.74,14.93-15.67,29.77-23.08,44.87-2.68,5.46-5.88,6.92-11.39,4.64-25.94-10.73-45.67-27.75-53.51-55.48-3.92-13.85-1.63-27.71,5.13-40.72,15.29-29.41,30.37-58.91,45.6-88.35,3.64-7.04,2.81-8.42-5.59-8.42-40.47,0-80.93,0-121.4,0Z" style="fill: #da032d;"/>
        <path d="M693.09,469.56c-14.29,0-28.58,.04-42.86-.02-7.92-.03-8.71-1.22-5.15-8.19,11.32-22.18,22.82-44.26,34.1-66.46,14.78-29.1,29.51-58.22,44-87.46,2.31-4.67,5.34-6.09,10.24-6.07,30.52,.11,61.03-.01,91.55,0,7.69,0,8.93,1.85,5.54,8.54-21.21,41.83-42.49,83.63-63.76,125.43-3.6,7.07-7.27,14.11-10.89,21.16-4.16,8.1-10.09,12.9-19.9,12.61-14.28-.42-28.57-.11-42.86-.11,0,.18,0,.36,0,.55Z" style="fill: #da032d;"/>
        <path d="M854.78,156.27c-14.52,0-29.05,0-43.57,0-10.71,0-10.9-.3-6.13-9.58,20.09-39.06,40.21-78.1,60.29-117.16,4.06-7.91,7.64-16.08,12.15-23.72,1.5-2.55,5.2-5.35,7.93-5.39C917.16-.02,948.87,.05,980.57,0c6.35,0,5.88,3.35,3.7,7.6-14.5,28.22-28.95,56.47-43.46,84.68-9.77,19-19.77,37.88-29.27,57-2.48,5-5.3,7.04-11.03,6.89-15.24-.42-30.49-.14-45.74-.14v.24Z" style="fill: #da032d;"/>
      </g>
      <g>
        <path d="M420.63,0C516.1,0,611.57,0,707.04,0c42.38,0,84.77,.07,127.15,.11,6.06,0,6.99,1.89,4.09,7.47-13.92,26.78-27.61,53.69-41.9,80.27-1.61,2.99-6.52,5.95-9.91,5.97-43.36,.19-86.72-.19-130.09-.34-4.83-.02-9.73,.02-14.45,.87-2.1,.37-4.59,2.41-5.62,4.37-13.3,25.38-26.39,50.86-39.48,76.35-3.05,5.94-2.04,7.38,5.12,7.37,32.47-.04,64.93-.11,97.4-.22,8.41-.03,9.63,1.83,5.89,9.2-13.06,25.76-26.26,51.46-38.99,77.39-2.54,5.18-5.64,7.04-11.16,7-32.23-.2-64.46,.2-96.68-.45-9.21-.19-13.78,3.03-17.67,11.07-11.84,24.44-24.48,48.5-36.9,72.65-5.15,10.01-2.63,14.5,8.61,14.51,42.89,.04,85.78-.02,128.67,.05,2.27,0,4.55,.85,6.82,1.31-.5,2.45-.51,5.14-1.58,7.31-12.12,24.53-24.38,49-36.68,73.45-1.83,3.64-3.63,7.42-6.19,10.51-1.43,1.72-4.4,3.05-6.68,3.06-55.49,.13-110.97,.19-166.46-.06-22-.1-44.15-19.44-49.85-40.49-5.87-21.67-.24-40.54,9.52-59.6,34.87-68.12,69.2-136.52,103.81-204.77,11.41-22.5,23.05-44.89,34.62-67.31,2.81-5.44,.88-7.95-6.18-7.95-33.44,.02-66.88,.03-100.31,.04-108.08,.03-216.16-.28-324.23,.29-36.01,.19-61.59-16.44-80.05-45.37C10.7,33.06,6.25,20.37,1.05,8.27-1.42,2.5,.43,.52,6.99,.53c137.88,0,275.76,0,413.65,0V0Z" style="fill: #da032d;"/>
        <path d="M290.46,115.26c61.99,0,123.99-.01,185.98,.01,9.42,0,9.98,1.03,5.85,9.27-8.83,17.59-17.7,35.17-26.37,52.84-2.81,5.73-6.52,8.58-13.4,8.56-89.84-.17-179.68,.16-269.52-.21-27.83-.12-47.05-16.53-62.64-37.57-5.22-7.05-8.95-15.28-12.84-23.22-3.94-8.05-2.74-9.61,6.24-9.61,62.24,0,124.47,0,186.71,0v-.08Z" style="fill: #da032d;"/>
        <path d="M308.14,212.49c39.47,0,78.95-.05,118.42,.09,2.96,.01,5.92,1.32,8.87,2.03-1.12,2.59-2.13,5.23-3.38,7.75-8.41,17.01-17.07,33.91-25.22,51.05-2.65,5.57-6.03,7.68-12.29,7.64-41.41-.26-82.85-1.08-124.23,.13-40.45,1.18-66.15-18.95-83.61-52.78-7.95-15.41-7.56-15.83,9.54-15.89,37.29-.12,74.59-.04,111.89-.04,0,0,0,.02,0,.03Z" style="fill: #da032d;"/>
        <path d="M327.03,307.06c18.17,0,36.33,.14,54.49-.08,6.28-.08,6.58,3.08,4.51,7.31-8.56,17.5-17.05,35.06-26.34,52.17-1.57,2.89-6.93,5.06-10.65,5.23-34.72,1.62-57.87-16.83-75.36-44.5-2.56-4.04-4.44-8.51-6.73-12.73-3-5.53-.76-7.42,4.85-7.39,15.02,.07,30.04,.03,45.06,.03,3.39,0,6.78,0,10.17,0v-.05Z" style="fill: #da032d;"/>
      </g>
    </g>
  </g>
</svg>