<?xml version="1.0" encoding="UTF-8"?>
<svg id="Layer_2" data-name="Layer 2" xmlns="http://www.w3.org/2000/svg" viewBox="0 0 555.64 469.58">
  <g id="Layer_1-2" data-name="Layer 1">
    <g>
      <path d="M177.48,275.58c-39.98,0-79.96,.02-119.94-.01-8.99,0-9.34-.48-5.49-7.97,10.52-20.44,20.44-41.25,32.03-61.07,9.19-15.7,24.17-24.21,42.68-24.27,73.18-.22,146.35-.16,219.53,.03,6.4,.02,9.98-1.9,12.96-7.76,25.94-50.95,52.58-101.55,78.15-152.68,6.86-13.71,16.09-21.05,31.34-21.07,23.25-.02,46.51-.18,69.76-.28,1.45,0,2.91,0,4.36,0,15-.16,15.29,.16,8.54,13.26-25.99,50.43-52.06,100.81-78.12,151.2-21.06,40.73-42.13,81.45-63.21,122.16-22.78,43.98-45.58,87.95-68.36,131.92-7.74,14.93-15.67,29.77-23.08,44.87-2.68,5.46-5.88,6.92-11.39,4.64-25.94-10.73-45.67-27.75-53.51-55.48-3.92-13.85-1.63-27.71,5.13-40.72,15.29-29.41,30.37-58.91,45.6-88.35,3.64-7.04,2.81-8.42-5.59-8.42-40.47,0-80.93,0-121.4,0Z" style="fill: #da032d;"/>
      <path d="M50.04,469.56c-14.29,0-28.58,.04-42.86-.02-7.92-.03-8.71-1.22-5.15-8.19,11.32-22.18,22.82-44.26,34.1-66.46,14.78-29.1,29.51-58.22,44-87.46,2.31-4.67,5.34-6.09,10.24-6.07,30.52,.11,61.03-.01,91.55,0,7.69,0,8.93,1.85,5.54,8.54-21.21,41.83-42.49,83.63-63.76,125.43-3.6,7.07-7.27,14.11-10.89,21.16-4.16,8.1-10.09,12.9-19.9,12.61-14.28-.42-28.57-.11-42.86-.11,0,.18,0,.36,0,.55Z" style="fill: #da032d;"/>
      <path d="M211.73,156.26c-14.52,0-29.05,0-43.57,0-10.71,0-10.9-.3-6.13-9.58,20.09-39.06,40.21-78.1,60.29-117.16,4.06-7.91,7.64-16.08,12.15-23.72,1.5-2.55,5.2-5.35,7.93-5.39C274.11-.02,305.81,.04,337.52,0c6.35,0,5.88,3.35,3.7,7.6-14.5,28.22-28.95,56.47-43.46,84.68-9.77,19-19.77,37.88-29.27,57-2.48,5-5.3,7.04-11.03,6.89-15.24-.42-30.49-.14-45.74-.14v.24Z" style="fill: #da032d;"/>
    </g>
  </g>
</svg>