<?xml version="1.0" encoding="UTF-8"?>
<svg id="Layer_2" data-name="Layer 2" xmlns="http://www.w3.org/2000/svg" viewBox="0 0 401.01 469.83">
  <g id="Layer_1-2" data-name="Layer 1">
    <path d="M271.38,.09c40.7,0,81.39-.03,122.09,.08,2.52,0,5.03,1.13,7.54,1.73-.75,2.61-1.1,5.42-2.32,7.79-12.64,24.55-25.56,48.95-38.06,73.57-3.52,6.93-7.79,10.36-16.16,10.23-24.94-.36-49.91,.65-74.84,.14-8.22-.17-12.23,3.19-15.56,9.67-16.69,32.47-33.43,64.91-50.31,97.28-23.01,44.12-46.13,88.18-69.25,132.25-18,34.32-36.08,68.6-54.07,102.92-5.03,9.59-10.05,19.19-14.73,28.95-2.39,4.99-5.88,6.19-10.6,4.28-21.8-8.8-38.82-23.03-49.22-44.38-9.97-20.45-6.4-39.65,4.02-59.29,35.11-66.2,69.43-132.83,104.1-199.27,10.88-20.85,21.86-41.64,32.89-62.41,4.86-9.16,4.11-10.56-6.47-10.47-12.11,.11-24.22,.36-36.33,.52-9.12,.12-9.94-1.07-5.95-9.13,12.69-25.64,25.7-51.11,37.99-76.94C139.13,1.33,143.26-.01,149.28,0c40.7,.08,81.4,.04,122.11,.04,0,.02,0,.03,0,.05Z" style="fill: #da032d;"/>
  </g>
</svg>